<svg xmlns="http://www.w3.org/2000/svg" viewBox="0 0 146.67 60.48"><defs><style>.cls-1{fill:#0ace8e;}.cls-2{fill:#fff;}.cls-3{fill:#f80731;}.cls-4{fill:#fcc302;}</style></defs><g id="Layer_2" data-name="Layer 2"><g id="Layer_1-2" data-name="Layer 1"><polygon class="cls-1" points="25.31 1.53 0.6 27.59 0.6 1.53 25.31 1.53"/><path class="cls-2" d="M0,29.1V.93H26.71Zm1.2-27v24l22.71-24Z"/><polygon class="cls-1" points="8.09 36.85 25.95 58.76 0.6 58.76 0.6 44.66 8.09 36.85"/><path class="cls-2" d="M27.21,59.36H0v-15l8.13-8.47Zm-26-1.2H24.68L8.05,37.75,1.2,44.9Z"/><polygon class="cls-1" points="41 2.97 41 58.76 16.55 27.84 41 1.53 41 2.97"/><path class="cls-2" d="M41.6,60.48,15.76,27.81,41.6,0ZM17.34,27.87,40.4,57v-54Z"/><polygon class="cls-3" points="90.27 58.76 51.62 58.76 51.62 26.01 67.96 52.85 70.9 57.67 73.78 52.85 90.19 25.29 90.27 58.76"/><path class="cls-2" d="M90.88,59.36H51V23.87L70.9,56.51l19.88-33.4Zm-19.57-1.2H89.67l-.08-30.7Zm-19.09,0H70.5l-3-5-15.23-25Z"/><polygon class="cls-3" points="50.19 2.97 91.63 2.97 71.08 37.64 50.19 2.97"/><path class="cls-2" d="M71.08,38.81,49.13,2.37H92.68ZM51.25,3.57l19.82,32.9L90.58,3.57Z"/><path class="cls-4" d="M133.29,43.37c0,3.44-3.11,6-10.76,6l-1.25,0h0c-.18,0-.44,0-.75-.06l-.59,0a33.09,33.09,0,0,1-7.34-1.49l-1.19-.4a27.12,27.12,0,0,1-5.22-2.46c-.23-.14-.45-.27-.67-.42A18.29,18.29,0,0,1,101,40.2V21.37C103,39.65,133.29,33.28,133.29,43.37Z"/><path class="cls-2" d="M122.53,50l-1.23,0a6.38,6.38,0,0,1-.7-.05h-.14l-.58,0a32.86,32.86,0,0,1-7.49-1.51l-.24-.08c-.32-.11-.65-.21-1-.33a27.48,27.48,0,0,1-5.33-2.51l-.2-.12-.48-.31a18.87,18.87,0,0,1-4.69-4.4l-.12-.16v-19l1.19-.06c1.11,10,11,12.3,19.74,14.33,6.76,1.57,12.6,2.92,12.6,7.73C133.89,45.83,132.41,50,122.53,50Zm-21-10a17.72,17.72,0,0,0,4.28,4l.44.29.21.12a26,26,0,0,0,5.1,2.4c.31.12.63.22.94.32l.24.08a32,32,0,0,0,7.2,1.46l.59,0,.16,0c.22,0,.4,0,.55,0l1.26,0c6.55,0,10.16-1.91,10.16-5.38,0-3.86-5.41-5.11-11.67-6.56-7.33-1.71-16.18-3.76-19.46-10.92Z"/><path class="cls-4" d="M124.37,2C109.56,2,101.91,8.9,101,17.53V2Z"/><path class="cls-2" d="M101.55,17.6l-1.19-.06V1.42h24v1.2C111.12,2.62,102.59,8.22,101.55,17.6Zm0-15V13c1.9-4.4,6-8.41,13-10.33Z"/><path class="cls-4" d="M113.74,18.36c0-3.44,3.1-6,10.75-6l1.26,0h0c.19,0,.45,0,.75.06l.59,0A32,32,0,0,1,134.45,14l1.18.4a26.92,26.92,0,0,1,5.23,2.46c.23.14.45.27.66.42a18.33,18.33,0,0,1,4.55,4.25V40.35C144.05,22.08,113.74,28.45,113.74,18.36Z"/><path class="cls-2" d="M145.47,40.42c-1.1-10-11-12.3-19.74-14.33-6.76-1.57-12.59-2.92-12.59-7.73,0-2.46,1.47-6.58,11.35-6.58l1.23,0a6.54,6.54,0,0,1,.71,0l.71.05a33.41,33.41,0,0,1,7.5,1.52l.24.08q.48.15,1,.33a26.65,26.65,0,0,1,5.33,2.51l.21.12c.16.1.32.2.47.31a18.74,18.74,0,0,1,4.7,4.4l.12.16v19ZM124.49,13c-6.55,0-10.15,1.91-10.15,5.38,0,3.85,5.4,5.11,11.66,6.56,7.34,1.7,16.19,3.76,19.47,10.92V21.73a17.75,17.75,0,0,0-4.28-4l-.45-.28-.2-.13a26.57,26.57,0,0,0-5.1-2.39c-.32-.12-.63-.22-.94-.32l-.24-.08a31.94,31.94,0,0,0-7.21-1.46l-.59,0-.15,0c-.22,0-.41,0-.55,0Z"/><path class="cls-4" d="M122.66,59.71c14.81,0,22.46-6.89,23.41-15.52V59.71Z"/><path class="cls-2" d="M146.67,60.31h-24v-1.2c13.25,0,21.78-5.6,22.81-15l1.2.06Zm-14.21-1.2h13V48.78C143.57,53.18,139.47,57.19,132.46,59.11Z"/></g></g></svg>